# xmcd
#
# Track frame offsets: 
#        150
#        12554
#        22024
#        35226
#        45184
#        54904
#        64643
#        74847
#        85153
#        98404
#
# Disc length: 1489 seconds
#
# Revision: 0
# Processed by: cddbd v1.5.2PL0 Copyright (c) Steve Scherf et al.
# Submitted via: ExactAudioCopy v1.3
#
DISCID=7e05cf0a
DTITLE=Red Sovine - CD4_Lay Down Sally
DYEAR=2009
DGENRE=Country
TTITLE0=Lay Down Sally
TTITLE1=I Can't Believe I Lost My Everything
TTITLE2=Flesh And Blood
TTITLE3=Cold Love To Go
TTITLE4=Farmers And The Miners
TTITLE5=Hold Everything (Till I Get Home)
TTITLE6=I'll Sail My Ship Alone
TTITLE7=I'm Waiting Just For You
TTITLE8=It Happens Every Night (But Not At Our House)
TTITLE9=Signed, Sealed And Delivered
EXTD=
EXTT0=
EXTT1=
EXTT2=
EXTT3=
EXTT4=
EXTT5=
EXTT6=
EXTT7=
EXTT8=
EXTT9=
PLAYORDER=
